<svg width="21" height="21" viewBox="0 0 21 21" fill="none" xmlns="http://www.w3.org/2000/svg">
<g clip-path="url(#clip0)">
<path d="M10.5 17.7C8 17.7 5.79 16.42 4.5 14.5C4.53 12.5 8.5 11.4 10.5 11.4C12.5 11.4 16.47 12.5 16.5 14.5C15.8389 15.4844 14.9459 16.2912 13.8996 16.8492C12.8533 17.4072 11.6858 17.6994 10.5 17.7V17.7ZM10.5 3.5C11.2956 3.5 12.0587 3.81607 12.6213 4.37868C13.1839 4.94129 13.5 5.70435 13.5 6.5C13.5 7.29565 13.1839 8.05871 12.6213 8.62132C12.0587 9.18393 11.2956 9.5 10.5 9.5C9.70435 9.5 8.94129 9.18393 8.37868 8.62132C7.81607 8.05871 7.5 7.29565 7.5 6.5C7.5 5.70435 7.81607 4.94129 8.37868 4.37868C8.94129 3.81607 9.70435 3.5 10.5 3.5V3.5ZM10.5 0.5C9.18678 0.5 7.88642 0.758658 6.67317 1.2612C5.45991 1.76375 4.35752 2.50035 3.42893 3.42893C1.55357 5.3043 0.5 7.84784 0.5 10.5C0.5 13.1522 1.55357 15.6957 3.42893 17.5711C4.35752 18.4997 5.45991 19.2362 6.67317 19.7388C7.88642 20.2413 9.18678 20.5 10.5 20.5C13.1522 20.5 15.6957 19.4464 17.5711 17.5711C19.4464 15.6957 20.5 13.1522 20.5 10.5C20.5 4.97 16 0.5 10.5 0.5Z" fill="#999999"/>
</g>
<defs>
<clipPath id="clip0">
<rect width="20" height="20" fill="white" transform="translate(0.5 0.5)"/>
</clipPath>
</defs>
</svg>
